<?xml version="1.0" encoding="utf-8"?>
<!-- Generator: Adobe Illustrator 19.0.0, SVG Export Plug-In . SVG Version: 6.00 Build 0)  -->
<svg version="1.1" xmlns="http://www.w3.org/2000/svg" xmlns:xlink="http://www.w3.org/1999/xlink" x="0px" y="0px" width="607.1px"
	 height="400px" viewBox="0 0 607.1 400" enable-background="new 0 0 607.1 400" xml:space="preserve">
<g id="GraphicDesign-1">
	<g id="XMLID_732_">
		<g id="XMLID_1121_">
			<g id="XMLID_1129_">
				<path id="XMLID_809_" fill="#231F20" d="M245.7,245.4c-2.8,0-5.2-2.3-5.2-5.2V193c0-3.3-2.7-5.9-5.9-5.9c-0.4,0-0.8-0.2-1-0.6
					c-0.2-0.3-0.3-0.8-0.1-1.1l10.6-23c0.2-0.4,0.6-0.7,1.1-0.7c0.1,0,0.2,0,0.3,0c0.1,0,0.1,0,0.2,0.1c0.1,0,0.1,0,0.2-0.1
					c0.1,0,0.2,0,0.3,0c0.5,0,0.9,0.3,1.1,0.7l10.6,23c0.2,0.4,0.1,0.8-0.1,1.2c-0.2,0.3-0.6,0.6-1,0.6c-3.3,0-5.9,2.6-5.9,5.9v47.3
					C250.8,243.1,248.5,245.4,245.7,245.4z M245.6,178.2c-0.1,0-0.3,0.2-0.3,0.4c0,0.2,0.2,0.4,0.4,0.4c0.2,0,0.4-0.2,0.4-0.4
					c0-0.2-0.1-0.3-0.3-0.4c0,0-0.1,0-0.1,0C245.6,178.2,245.6,178.2,245.6,178.2z"/>
				<path id="XMLID_800_" fill="#231F20" d="M246.1,162.9l10.6,23h0c-3.9,0-7.1,3.2-7.1,7.1v0v3.4v0.5v43.4c0,2.2-1.8,3.9-4,3.9
					c-2.2,0-4-1.8-4-3.9v-43.4v-0.5V193h0v0c0-3.9-3.2-7.1-7.1-7.1h0l10.6-23v14.1c-0.7,0.2-1.1,0.8-1.1,1.5c0,0.9,0.7,1.6,1.6,1.6
					s1.6-0.7,1.6-1.6c0-0.7-0.5-1.3-1.1-1.5V162.9 M246.1,160.5c-0.2,0-0.3,0-0.5,0c-0.1,0-0.3,0-0.4,0c-0.9,0-1.8,0.5-2.2,1.4
					l-10.6,23c-0.3,0.7-0.3,1.6,0.2,2.3c0.4,0.7,1.2,1.1,2,1.1c2.6,0,4.7,2.1,4.7,4.7l0,3.4v0.5v43.4c0,3.5,2.9,6.3,6.4,6.3
					c3.5,0,6.4-2.8,6.4-6.3v-43.4v-0.5V193c0-2.6,2.1-4.7,4.7-4.7c0.8,0,1.6-0.4,2-1.1c0.4-0.7,0.5-1.6,0.2-2.3l-10.6-23
					C247.9,161.1,247,160.5,246.1,160.5L246.1,160.5z"/>
			</g>
			<g id="XMLID_1124_">
				<g id="XMLID_1127_">
					<path id="XMLID_1128_" fill="#F79420" d="M249.6,196.4v43.9c0,2.2-1.8,3.9-4,3.9c-2.2,0-4-1.8-4-3.9v-43.9H249.6z"/>
				</g>
				<rect id="XMLID_1126_" x="241.7" y="193" fill="#A9B4BC" width="7.9" height="6.1"/>
				<path id="XMLID_1125_" fill="#E6E9EC" d="M246.1,162.9v14.1c0.7,0.2,1.1,0.8,1.1,1.5c0,0.9-0.7,1.6-1.6,1.6
					c-0.9,0-1.6-0.7-1.6-1.6c0-0.7,0.5-1.3,1.1-1.5v-14.1l-10.6,23h0c3.9,0,7.1,3.2,7.1,7.1v0h7.9v0c0-3.9,3.2-7.1,7.1-7.1h0
					L246.1,162.9z"/>
			</g>
			
				<line id="XMLID_1123_" fill="#231F20" stroke="#231F20" stroke-width="2.4" stroke-linecap="round" stroke-linejoin="round" stroke-miterlimit="10" x1="241.3" y1="193" x2="250" y2="193"/>
			
				<line id="XMLID_1122_" fill="#231F20" stroke="#231F20" stroke-width="2.4" stroke-linecap="round" stroke-linejoin="round" stroke-miterlimit="10" x1="241.3" y1="200.1" x2="250" y2="200.1"/>
		</g>
		<g id="XMLID_1116_">
			<g id="XMLID_1119_" opacity="0.5">
				
					<circle id="XMLID_782_" fill="none" stroke="#FFFFFF" stroke-width="2" stroke-linecap="round" stroke-linejoin="round" stroke-dasharray="12.165,12.165,12.165,12.165,12.165,12.165" cx="303.8" cy="195.7" r="174.2"/>
			</g>
			<g id="XMLID_1117_" opacity="0.5">
				
					<circle id="XMLID_771_" fill="none" stroke="#FFFFFF" stroke-width="2" stroke-linecap="round" stroke-linejoin="round" stroke-dasharray="12.4251,12.4251,12.4251,12.4251,12.4251,12.4251" cx="303.8" cy="195.7" r="118.6"/>
			</g>
		</g>
		<g id="XMLID_32849_">
			<g id="XMLID_32862_">
				<g id="XMLID_32896_">
					<g id="XMLID_32912_">
						<path id="XMLID_32913_" fill="#54DFFF" stroke="#000000" stroke-width="2.4" d="M319.1,270.4c-4.1,0-7.5-3.4-7.5-7.5V157.8
							c0-4.1,3.4-7.5,7.5-7.5h105.2c4.1,0,7.5,3.4,7.5,7.5v105.2c0,4.1-3.4,7.5-7.5,7.5H319.1z"/>
					</g>
					<g id="XMLID_32897_">
						<path id="XMLID_32903_" fill="#8DC63F" stroke="#000000" stroke-width="2.4" d="M431.4,247.1L398,213.7l-14.2,14.2l-29.5-29.5
							l-42.3,42.3v29.7h119.7L431.4,247.1z"/>
						<path id="XMLID_32902_" fill="#F7941E" stroke="#000000" stroke-width="2.4" d="M398.3,190.5c5.6,0,10.2-4.6,10.2-10.2
							c0-5.6-4.6-10.2-10.2-10.2c-5.6,0-10.2,4.6-10.2,10.2C388.1,185.9,392.6,190.5,398.3,190.5z"/>
					</g>
				</g>
				<g id="XMLID_32873_">
					<circle id="XMLID_32895_" cx="417.8" cy="83.3" r="7.1"/>
					<path id="XMLID_32891_" d="M378.8,130.3c0,3.9-3.2,7.1-7.1,7.1c-3.9,0-7.1-3.2-7.1-7.1c0-3.9,3.2-7.1,7.1-7.1
						C375.6,123.2,378.8,126.3,378.8,130.3z"/>
					<circle id="XMLID_32880_" cx="326.9" cy="83.3" r="7.1"/>
					
						<line id="XMLID_32878_" fill="none" stroke="#000000" stroke-width="3.0321" stroke-linecap="round" stroke-linejoin="round" x1="316.1" y1="131.3" x2="428.3" y2="131.3"/>
					
						<path id="XMLID_32874_" fill="none" stroke="#000000" stroke-width="3.0321" stroke-linecap="round" stroke-linejoin="round" d="
						M418,84.1c-0.2,25.1-20.6,45.5-45.8,45.5c-25.3,0-45.8-20.5-45.8-45.8c0-0.1,0-0.2,0-0.4"/>
				</g>
				<rect id="XMLID_32872_" x="303.6" y="142.1" width="19.4" height="19.4"/>
				<rect id="XMLID_32871_" x="303.6" y="257.5" width="19.4" height="19.4"/>
				<rect id="XMLID_32863_" x="421.9" y="141.3" width="19.4" height="19.4"/>
			</g>
		</g>
		<g id="XMLID_1086_">
			
				<path id="XMLID_1115_" fill="#FFFFFF" stroke="#000000" stroke-width="4" stroke-linecap="round" stroke-linejoin="round" stroke-miterlimit="10" d="
				M479.6,378.5"/>
			<g id="XMLID_1093_">
				<g id="XMLID_1096_">
					<g id="XMLID_1104_">
						<g id="XMLID_1105_">
							<rect id="XMLID_1114_" x="359.9" y="259" fill="#FFFFFF" width="114" height="115.1"/>
							<g id="XMLID_1106_">
								<g id="XMLID_1107_">
									<g id="XMLID_1108_">
										<g id="XMLID_1109_">
											<rect id="XMLID_1113_" x="359.9" y="259" fill="#54DFFF" width="114" height="15.8"/>
											<g id="XMLID_1110_">
												<path id="XMLID_1112_" d="M370.3,264.2L370.3,264.2c-1.5,0-2.7,1.2-2.7,2.7l0,0c0,1.5,1.2,2.7,2.7,2.7l0,0
													c1.5,0,2.7-1.2,2.7-2.7l0,0C373,265.4,371.8,264.2,370.3,264.2z"/>
												<path id="XMLID_1111_" d="M381.2,264.2L381.2,264.2c-1.5,0-2.7,1.2-2.7,2.7l0,0c0,1.5,1.2,2.7,2.7,2.7l0,0
													c1.5,0,2.7-1.2,2.7-2.7l0,0C383.9,265.4,382.7,264.2,381.2,264.2z"/>
											</g>
										</g>
									</g>
								</g>
							</g>
						</g>
					</g>
					<g id="XMLID_1097_">
						<path id="XMLID_1101_" d="M413.1,332.1c0,0.5-0.2,0.9-0.5,1.2c-0.3,0.3-0.8,0.5-1.3,0.5c-0.3,0-0.7-0.1-1-0.3
							c-0.3-0.2-0.5-0.5-0.7-0.8l-1.9-4.7h-12.1l-1.9,4.7c-0.2,0.3-0.4,0.6-0.7,0.8s-0.6,0.3-0.9,0.3c-0.5,0-0.9-0.2-1.2-0.5
							c-0.3-0.3-0.5-0.8-0.5-1.2c0-0.2,0.1-0.5,0.2-0.8l9.5-22.7c0.3-0.8,0.9-1.2,1.7-1.2c0.8,0,1.4,0.4,1.7,1.2l9.5,22.8
							C413.1,331.7,413.1,331.9,413.1,332.1z M396.9,325.1h9.8l-4.8-12L396.9,325.1z"/>
						<path id="XMLID_1098_" d="M420.9,333.3c-0.3-0.3-0.5-0.8-0.5-1.3v-22.9c0-0.5,0.2-0.9,0.5-1.3c0.3-0.3,0.8-0.5,1.3-0.5h6.1
							c2.5,0,4.8,0.6,6.8,1.7c2,1.1,3.5,2.7,4.6,4.7c1.1,2,1.7,4.3,1.7,6.8s-0.6,4.8-1.7,6.8c-1.1,2-2.6,3.6-4.6,4.7
							c-2,1.1-4.3,1.7-6.8,1.7h-6.1C421.6,333.9,421.2,333.7,420.9,333.3z M428.3,330.7c1.9,0,3.5-0.4,5-1.3
							c1.5-0.9,2.6-2.1,3.5-3.6c0.8-1.5,1.2-3.3,1.2-5.2c0-1.9-0.4-3.7-1.2-5.2c-0.8-1.5-2-2.7-3.5-3.6c-1.5-0.9-3.2-1.3-5-1.3h-4.4
							v20.2H428.3z"/>
					</g>
				</g>
				
					<polygon id="XMLID_1095_" fill="none" stroke="#000000" stroke-width="2.4" stroke-linecap="round" stroke-linejoin="round" stroke-miterlimit="10" points="
					474.2,374.1 360.2,374.1 359.9,259 473.8,259 				"/>
				
					<line id="XMLID_1094_" fill="none" stroke="#000000" stroke-width="2.4" stroke-miterlimit="10" x1="359.8" y1="274.4" x2="474.2" y2="274.4"/>
			</g>
			<g id="XMLID_1087_">
				<path id="XMLID_1088_" fill="#ED1C24" d="M488.9,244c-4-4-9.4-6.2-15-6.2c-5.7,0-11,2.2-15,6.2c-4,4-6.2,9.4-6.2,15
					s2.2,11,6.2,15c4,4,9.4,6.2,15,6.2c5.7,0,11-2.2,15-6.2c4-4,6.2-9.4,6.2-15S492.9,248,488.9,244z M459.7,244.8
					c3.6-3.6,8.4-5.7,13.5-5.9v2.8c0,0,0,0,0,0c-4.4,0.2-8.5,2-11.6,5c-3.1,3.1-4.9,7.2-5,11.6c0,0,0,0,0,0h-2.8
					C454,253.3,456,248.5,459.7,244.8z M465.9,272.9c-0.9-0.5-1.7-1.1-2.4-1.7c-0.3-0.2-0.7-0.2-0.9,0.1c-0.2,0.3-0.2,0.7,0.1,0.9
					c3,2.5,6.7,4,10.6,4.1v2.8c-5.1-0.2-9.9-2.2-13.5-5.9s-5.7-8.4-5.9-13.5h2.8c0.1,3.9,1.6,7.6,4.1,10.6c0.1,0.1,0.3,0.2,0.5,0.2
					c0.1,0,0.3,0,0.4-0.1c0.3-0.2,0.3-0.6,0.1-0.9c-2.3-2.7-3.7-6.2-3.8-9.8h3.4c0.3,0,0.6-0.3,0.6-0.6c0-0.3-0.3-0.6-0.6-0.6h-3.4
					c0.2-4,1.8-7.8,4.7-10.7c2.9-2.9,6.7-4.5,10.7-4.7v3.4c0,0.3,0.3,0.6,0.6,0.6c0.3,0,0.6-0.3,0.6-0.6V243c3.6,0.1,7,1.5,9.8,3.8
					c0.3,0.2,0.7,0.2,0.9-0.1c0.2-0.3,0.2-0.7-0.1-0.9c-3-2.5-6.7-4-10.6-4.1V239c5.1,0.2,9.9,2.2,13.5,5.9
					c3.6,3.6,5.7,8.4,5.9,13.5h-2.8c-0.1-3.9-1.6-7.6-4.1-10.6c-0.2-0.3-0.6-0.3-0.9-0.1c-0.3,0.2-0.3,0.6-0.1,0.9
					c2.3,2.7,3.7,6.2,3.8,9.8h-3.4c-0.3,0-0.6,0.3-0.6,0.6c0,0.3,0.3,0.6,0.6,0.6h3.4c-0.2,4-1.8,7.8-4.7,10.7c-1,1-2.2,1.9-3.4,2.6
					l-1.2,0.6c-0.5,0.2-0.9,0.4-1.4,0.6l-1.2,0.4c-1.1,0.3-2.3,0.5-3.4,0.5v-3.4c0-0.3-0.3-0.6-0.6-0.6c-0.3,0-0.6,0.3-0.6,0.6v3.4
					c-1.2,0-2.3-0.2-3.4-0.5l-1.2-0.4c-0.5-0.2-1-0.4-1.4-0.6L465.9,272.9z M488,273.2c-3.6,3.6-8.4,5.7-13.5,5.9v-2.8c0,0,0,0,0,0
					c4.4-0.2,8.5-2,11.6-5c3.1-3.1,4.9-7.2,5-11.6c0,0,0,0,0,0h2.8C493.7,264.7,491.6,269.5,488,273.2z"/>
			</g>
		</g>
		<g id="XMLID_1021_">
			<g id="XMLID_1022_">
				<g id="XMLID_1057_">
					<rect id="XMLID_1085_" x="194.6" y="224.4" fill="#FFFFFF" width="174.6" height="149.6"/>
					<g id="XMLID_1075_">
						<rect id="XMLID_1084_" x="194" y="224.6" fill="#666666" width="175.4" height="11.4"/>
						<rect id="XMLID_1083_" x="194.8" y="239.1" fill="#666666" width="11.3" height="134.1"/>
						<rect id="XMLID_1082_" x="342.3" y="239.1" fill="#666666" width="27.1" height="134.1"/>
						<rect id="XMLID_1081_" x="194.8" y="235.9" fill="#333333" width="11.3" height="3.2"/>
						<rect id="XMLID_1080_" x="342.3" y="235.9" fill="#333333" width="26.9" height="3.2"/>
						<rect id="XMLID_1079_" x="342.3" y="251.2" fill="#333333" width="26.9" height="0.6"/>
						<rect id="XMLID_1078_" x="342.3" y="263.8" fill="#333333" width="26.9" height="0.6"/>
						<rect id="XMLID_1077_" x="342.3" y="282.8" fill="#333333" width="26.9" height="0.6"/>
						
							<rect id="XMLID_1076_" x="194.6" y="224.6" fill="none" stroke="#000000" stroke-width="2.4" stroke-linecap="round" stroke-linejoin="round" stroke-miterlimit="10" width="174.6" height="149.6"/>
					</g>
					<g id="XMLID_1058_">
						<g id="XMLID_1059_">
							<rect id="XMLID_1074_" x="244.5" y="275.4" fill="#54DFFF" width="56.7" height="36.1"/>
							<rect id="XMLID_1073_" x="244.5" y="307.6" fill="#8DC63F" width="56.7" height="22.2"/>
							<path id="XMLID_1071_" fill="#F7941E" d="M256.9,297l-2.2-2.7v-4.6l2.2-2.4c0,0,4.7-0.4,5,0c0.3,0.4,2.6,3.5,2.6,3.8
								s0,3.6,0,3.6l-4.9,3.3L256.9,297z"/>
							<g id="XMLID_1064_">
								<path id="XMLID_1068_" d="M242.9,273.7v57.8h59.7v-57.8H242.9z M299.8,328.7h-54.2v-52.3h54.2V328.7z"/>
								<path id="XMLID_1065_" d="M259.5,285.1c-3.9,0-7.1,3.2-7.1,7.1s3.2,7.1,7.1,7.1c3.9,0,7.1-3.2,7.1-7.1
									S263.4,285.1,259.5,285.1z M259.5,296.5c-2.4,0-4.3-1.9-4.3-4.3s1.9-4.3,4.3-4.3s4.3,1.9,4.3,4.3S261.9,296.5,259.5,296.5z"
									/>
							</g>
							<polygon id="XMLID_1063_" fill="#FFFFFF" points="251.5,320.9 265.6,311.8 264.5,316 268.5,312.4 281.6,319.9 267.1,305.1 
															"/>
							<polyline id="XMLID_1062_" fill="#FFFFFF" points="281.6,309.9 285.4,308.3 284.9,310.4 286.9,308.6 292.9,312.4 
								286.1,305.1 281.6,309.9 							"/>
							<polygon id="XMLID_1061_" points="251.3,321.2 267.1,305.5 282.8,321.2 284.8,319.3 267.1,301.6 249.4,319.3 							"/>
							<polygon id="XMLID_1060_" points="279.7,307.9 281.7,309.9 286,305.5 294.2,313.7 296.1,311.7 286,301.6 							"/>
						</g>
					</g>
				</g>
				<g id="XMLID_1045_">
					<circle id="XMLID_1055_" fill="#54DFFF" cx="201.3" cy="230.2" r="2.8"/>
					
						<line id="XMLID_1054_" fill="none" stroke="#FFFFFF" stroke-width="3" stroke-linecap="round" stroke-linejoin="round" stroke-miterlimit="10" x1="209.4" y1="230.1" x2="213.4" y2="230.1"/>
					
						<line id="XMLID_1053_" fill="none" stroke="#FFFFFF" stroke-width="3" stroke-linecap="round" stroke-linejoin="round" stroke-miterlimit="10" x1="221.4" y1="230.1" x2="225.4" y2="230.1"/>
					
						<line id="XMLID_1052_" fill="none" stroke="#FFFFFF" stroke-width="3" stroke-linecap="round" stroke-linejoin="round" stroke-miterlimit="10" x1="234.4" y1="230.1" x2="238.4" y2="230.1"/>
					
						<line id="XMLID_1051_" fill="none" stroke="#FFFFFF" stroke-width="3" stroke-linecap="round" stroke-linejoin="round" stroke-miterlimit="10" x1="247.4" y1="230.1" x2="251.4" y2="230.1"/>
					
						<line id="XMLID_1050_" fill="none" stroke="#FFFFFF" stroke-width="3" stroke-linecap="round" stroke-linejoin="round" stroke-miterlimit="10" x1="259.4" y1="230.1" x2="263.4" y2="230.1"/>
					
						<line id="XMLID_1049_" fill="none" stroke="#FFFFFF" stroke-width="3" stroke-linecap="round" stroke-linejoin="round" stroke-miterlimit="10" x1="272.4" y1="230.1" x2="276.4" y2="230.1"/>
					
						<line id="XMLID_1048_" fill="none" stroke="#FFFFFF" stroke-width="3" stroke-linecap="round" stroke-linejoin="round" stroke-miterlimit="10" x1="285.4" y1="230.1" x2="289.4" y2="230.1"/>
					
						<line id="XMLID_1047_" fill="none" stroke="#FFFFFF" stroke-width="3" stroke-linecap="round" stroke-linejoin="round" stroke-miterlimit="10" x1="297.4" y1="230.1" x2="301.4" y2="230.1"/>
					
						<line id="XMLID_1046_" fill="none" stroke="#FFFFFF" stroke-width="3" stroke-linecap="round" stroke-linejoin="round" stroke-miterlimit="10" x1="310.4" y1="230.1" x2="314.4" y2="230.1"/>
				</g>
				<polyline id="XMLID_1044_" fill="none" stroke="#000000" stroke-width="2" stroke-miterlimit="10" points="205.4,374.6 
					205.4,236.6 341.4,236.6 341.4,374.6 				"/>
				<g id="XMLID_1041_">
					<circle id="XMLID_1043_" fill="#FFFFFF" cx="346.1" cy="242.7" r="1.6"/>
					
						<line id="XMLID_1042_" fill="none" stroke="#FFFFFF" stroke-linecap="round" stroke-linejoin="round" stroke-miterlimit="10" x1="351.4" y1="243.1" x2="356.4" y2="243.1"/>
				</g>
				<g id="XMLID_1038_">
					<circle id="XMLID_1040_" fill="#FFFFFF" cx="346.1" cy="247.8" r="1.6"/>
					
						<line id="XMLID_1039_" fill="none" stroke="#FFFFFF" stroke-linecap="round" stroke-linejoin="round" stroke-miterlimit="10" x1="351.4" y1="248.1" x2="361.4" y2="248.1"/>
				</g>
				<g id="XMLID_1035_">
					<circle id="XMLID_1037_" fill="#FFFFFF" cx="346.1" cy="255.4" r="1.6"/>
					
						<line id="XMLID_1036_" fill="none" stroke="#FFFFFF" stroke-linecap="round" stroke-linejoin="round" stroke-miterlimit="10" x1="351.4" y1="256.1" x2="363.4" y2="256.1"/>
				</g>
				<g id="XMLID_1032_">
					<circle id="XMLID_1034_" fill="#FFFFFF" cx="346.1" cy="260.4" r="1.6"/>
					
						<line id="XMLID_1033_" fill="none" stroke="#FFFFFF" stroke-linecap="round" stroke-linejoin="round" stroke-miterlimit="10" x1="351.4" y1="261.1" x2="357.4" y2="261.1"/>
				</g>
				<g id="XMLID_1029_">
					<circle id="XMLID_1031_" fill="#FFFFFF" cx="346.1" cy="268" r="1.6"/>
					
						<line id="XMLID_1030_" fill="none" stroke="#FFFFFF" stroke-linecap="round" stroke-linejoin="round" stroke-miterlimit="10" x1="351.4" y1="268.1" x2="363.4" y2="268.1"/>
				</g>
				<g id="XMLID_1026_">
					<circle id="XMLID_1028_" fill="#FFFFFF" cx="346.1" cy="278.2" r="1.6"/>
					
						<line id="XMLID_1027_" fill="none" stroke="#FFFFFF" stroke-linecap="round" stroke-linejoin="round" stroke-miterlimit="10" x1="351.4" y1="279.1" x2="356.4" y2="279.1"/>
				</g>
				<g id="XMLID_1023_">
					<circle id="XMLID_1025_" fill="#FFFFFF" cx="346.1" cy="273.1" r="1.6"/>
					
						<line id="XMLID_1024_" fill="none" stroke="#FFFFFF" stroke-linecap="round" stroke-linejoin="round" stroke-miterlimit="10" x1="351.4" y1="274.1" x2="360.4" y2="274.1"/>
				</g>
			</g>
		</g>
		<g id="XMLID_1012_">
			<g id="XMLID_1015_">
				<circle id="XMLID_1020_" fill="#FFFFFF" cx="199.7" cy="229" r="21.4"/>
				<path id="XMLID_1016_" d="M222.1,233.5l8.3-4.5l-8.3-4.5l5.9-7.3l-9.4-1l2.7-9.1l-9.1,2.7l-1-9.4l-7.3,5.9l-4.5-8.3l-4.5,8.3
					l-7.3-5.9l-1,9.4l-9.1-2.7l2.7,9.1l-9.4,1l5.9,7.3l-8.3,4.5l8.3,4.5l-5.9,7.3l9.4,1l-2.7,9.1l9.1-2.7l1,9.4l7.3-5.9l4.5,8.3
					l4.5-8.3l7.3,5.9l1-9.4l9.1,2.7l-2.7-9.1l9.4-1L222.1,233.5z M199.4,250c-11.6,0-21-9.4-21-21c0-11.6,9.4-21,21-21
					c11.6,0,21,9.4,21,21C220.3,240.6,210.9,250,199.4,250z"/>
			</g>
			<path id="XMLID_1013_" fill="#F7941E" d="M181.3,229c0,10,8.1,18.1,18.1,18.1v-36.2C189.4,210.9,181.3,219,181.3,229z"/>
		</g>
		<g id="XMLID_1005_">
			<g id="XMLID_1007_">
				<rect id="XMLID_1011_" x="269.6" y="207.3" fill="#ED1C24" stroke="#000000" stroke-width="2.4" width="13.5" height="24.5"/>
				<g id="XMLID_1009_">
					<path id="XMLID_1010_" fill="#ED1C24" stroke="#000000" stroke-width="2.4" d="M290.6,239c1.2,0,1.9-1.4,1.1-2.3
						c-3.7-4.2-9.2-6.9-15.3-6.9c-6.1,0-11.6,2.7-15.3,6.9c-0.8,0.9-0.1,2.3,1.1,2.3L290.6,239z"/>
				</g>
				<path id="XMLID_1008_" fill="#ED1C24" stroke="#000000" stroke-width="2.4" d="M286.8,209.9c0,1.5-1.2,2.7-2.7,2.7l-15.4,0
					c-1.5,0-2.7-1.2-2.7-2.7c0-1.5,1.2-2.7,2.7-2.7l15.4,0C285.6,207.2,286.8,208.4,286.8,209.9z"/>
			</g>
			
				<line id="XMLID_1006_" fill="#FFFFFF" stroke="#000000" stroke-width="2.4" stroke-linecap="round" stroke-linejoin="round" x1="276" y1="239.1" x2="276" y2="262.8"/>
		</g>
		<g id="XMLID_1000_">
			
				<path id="XMLID_1002_" fill="#F7941E" stroke="#000000" stroke-width="1.2279" stroke-linecap="round" stroke-linejoin="round" stroke-miterlimit="10" d="
				M461.9,194.5l4.6,6.7c1.5-0.7,3.2-1.4,4.7-2.3l-5.5-8.1C464.4,192,463.2,193.3,461.9,194.5z M500.9,173.6c-0.4-1-1.5-1.4-2.4-1
				c0,0-3.7,1.5-9,4.2c-2.6,1.3-5.7,2.9-8.9,4.8c-1.6,0.9-10.5,6.2-12.9,7.8l5.7,8.3c2.7-1.8,10.7-7.8,12.1-8.9
				c2.9-2.3,5.5-4.5,7.7-6.4c4.5-3.9,7.2-6.7,7.2-6.7C501,175.1,501.1,174.3,500.9,173.6z"/>
			
				<path id="XMLID_1001_" fill="#54DFFF" stroke="#000000" stroke-width="1.2279" stroke-linecap="round" stroke-linejoin="round" stroke-miterlimit="10" d="
				M460.6,197c-3.1-1.9-7.1-0.8-10.8,4.6c-3.6,5.3-7.8,4.3-7.8,4.3s3.4,1,7.7,2.2c8.1,2.4,14.4-2,14.1-6.5L460.6,197z"/>
		</g>
		<g id="XMLID_986_">
			<g id="XMLID_989_">
				<polygon id="XMLID_999_" fill="#D1D3D4" points="490.5,303.1 492.9,303.8 494.9,304.8 496.7,307.4 497.1,309.7 496.5,312.3 
					495.1,314.3 494.5,314 				"/>
				<g id="XMLID_990_">
					<polygon id="XMLID_998_" fill="#D1D3D4" points="464.4,326.1 472.5,337.5 473.9,338.2 475.7,338.2 480.4,336.4 481,335.1 
						480.8,333.4 475.3,329.3 473.7,326.6 472.1,323 					"/>
					<polygon id="XMLID_997_" fill="#D1D3D4" points="472.9,322.8 468.7,312 472.4,310 475.9,306.1 478.7,301.6 481.1,297.1 
						482,294.1 483,292.5 485,292.4 486.4,293.9 489.6,302.2 497.9,324.3 498.2,326 497.4,326.9 495.3,327 491.5,325.3 487,323.4 
						482.3,322.1 476.3,321.9 					"/>
					<polygon id="XMLID_996_" fill="#54DFFF" points="473.9,322.5 469.5,311.2 458.9,315.5 457.2,317.2 456.9,319.9 458.8,324.1 
						460.4,326.3 463.2,326.7 					"/>
					<g id="XMLID_991_">
						
							<path id="XMLID_995_" fill="none" stroke="#000000" stroke-width="2.4" stroke-linecap="round" stroke-linejoin="round" stroke-miterlimit="10" d="
							M482.6,292.5l0.4-0.1c1.3-0.5,2.7,0.1,3.2,1.4l11.7,30.2c0.5,1.3-0.1,2.7-1.4,3.2l-0.4,0.1c-1.3,0.5-13.9-8.2-22.5-4.9
							l-10.7,4.2c-1.7,0.7-3.7-0.2-4.4-1.9l-1.9-4.9c-0.7-1.7,0.2-3.7,1.9-4.4l10.7-4.2C477.9,308,481.3,293,482.6,292.5
							L482.6,292.5z"/>
						
							<path id="XMLID_994_" fill="none" stroke="#000000" stroke-width="2.4" stroke-linecap="round" stroke-linejoin="round" stroke-miterlimit="10" d="
							M489.8,303.2c2.7-0.2,5.4,1.3,6.4,4c1,2.7,0.1,5.6-2,7.3"/>
						
							<line id="XMLID_993_" fill="none" stroke="#000000" stroke-width="2.4" stroke-linecap="round" stroke-linejoin="round" stroke-miterlimit="10" x1="469.5" y1="311.2" x2="473.8" y2="322.4"/>
						
							<path id="XMLID_992_" fill="none" stroke="#000000" stroke-width="2.4" stroke-linecap="round" stroke-linejoin="round" stroke-miterlimit="10" d="
							M471.3,323.4c1.4,2.3,1.8,5.1,4.2,6.9l4.1,3c1,0.8,0.7,2.9-0.5,3.4l-3.8,1.5c-1.2,0.4-2.7,0-3.5-1.1l-7.5-10.9L471.3,323.4
							L471.3,323.4z"/>
					</g>
				</g>
			</g>
			<g id="XMLID_987_">
				<defs>
					<polygon id="XMLID_988_" points="494.9,304.8 492.9,303.8 490.2,303.2 490.2,303.2 489.6,302.2 486.4,293.9 485,292.4 
						482.9,292.6 482,294.1 481.1,297.1 478.7,301.6 476,306.1 472.4,310 468.7,312 472.9,322.8 476.3,321.9 482.2,322.1 487,323.5 
						491.5,325.3 495.3,327 497.4,326.9 498.3,325.9 498.1,324.2 494.5,314.2 495.1,314.3 496.5,312.3 497.1,309.7 496.7,307.4 
											"/>
				</defs>
				<clipPath id="XMLID_2_">
					<use xlink:href="#XMLID_988_"  overflow="visible"/>
				</clipPath>
			</g>
		</g>
		<g id="XMLID_956_">
			<g id="XMLID_962_">
				<g id="XMLID_963_">
					<g id="XMLID_984_">
						<path id="XMLID_985_" fill="#FFE73F" d="M238.2,132.3l-0.5-2.6c0-1.9-1-5.5-2.8-5.5c-1.1,0-7.5-7.4-7.5-14.2
							c0-9.6,8.6-18.6,18.3-18.6c9.6,0,18.7,9,18.7,18.6c0,6.8-8.4,14.9-8.5,15c-1.4,1.2-2.4,2.8-2.4,4.7l0,2.6H238.2z"/>
					</g>
					<g id="XMLID_982_">
						<ellipse id="XMLID_983_" fill="#FFF18C" cx="245.7" cy="105.9" rx="12.1" ry="10.8"/>
					</g>
					<g id="XMLID_980_">
						<rect id="XMLID_981_" x="238.6" y="133.9" fill="#FFFFFF" width="14.1" height="4.7"/>
					</g>
					<g id="XMLID_978_">
						<path id="XMLID_979_" d="M248.4,145H243c-0.7,0-1.3-0.6-1.3-1.3l0,0c0-0.7,0.6-1.3,1.3-1.3h5.4c0.7,0,1.3,0.6,1.3,1.3l0,0
							C249.7,144.4,249.1,145,248.4,145z"/>
					</g>
					<g id="XMLID_976_">
						<path id="XMLID_977_" d="M245.7,84.4L245.7,84.4c-0.7,0-1.3-0.6-1.3-1.3v-4c0-0.7,0.6-1.3,1.3-1.3h0c0.7,0,1.3,0.6,1.3,1.3v4
							C247,83.8,246.4,84.4,245.7,84.4z"/>
					</g>
					<g id="XMLID_974_">
						<path id="XMLID_975_" d="M262.8,91.5L262.8,91.5c-0.5-0.5-0.5-1.4,0-1.9l2.9-2.9c0.5-0.5,1.4-0.5,1.9,0l0,0
							c0.5,0.5,0.5,1.4,0,1.9l-2.9,2.9C264.2,92,263.3,92,262.8,91.5z"/>
					</g>
					<g id="XMLID_972_">
						<path id="XMLID_973_" d="M275.3,110h-4c-0.7,0-1.3-0.6-1.3-1.3v0c0-0.7,0.6-1.3,1.3-1.3h4c0.7,0,1.3,0.6,1.3,1.3v0
							C276.6,109.4,276,110,275.3,110z"/>
					</g>
					<g id="XMLID_970_">
						<path id="XMLID_971_" d="M265.7,130.5l-2.9-2.9c-0.5-0.5-0.5-1.4,0-1.9l0,0c0.5-0.5,1.4-0.5,1.9,0l2.9,2.9
							c0.5,0.5,0.5,1.4,0,1.9l0,0C267,131.1,266.2,131.1,265.7,130.5z"/>
					</g>
					<g id="XMLID_968_">
						<path id="XMLID_969_" d="M223.8,130.5L223.8,130.5c-0.5-0.5-0.5-1.4,0-1.9l2.9-2.9c0.5-0.5,1.4-0.5,1.9,0l0,0
							c0.5,0.5,0.5,1.4,0,1.9l-2.9,2.9C225.2,131.1,224.3,131.1,223.8,130.5z"/>
					</g>
					<g id="XMLID_966_">
						<path id="XMLID_967_" d="M220.1,110h-4c-0.7,0-1.3-0.6-1.3-1.3v0c0-0.7,0.6-1.3,1.3-1.3h4c0.7,0,1.3,0.6,1.3,1.3v0
							C221.4,109.4,220.8,110,220.1,110z"/>
					</g>
					<g id="XMLID_964_">
						<path id="XMLID_965_" d="M226.6,91.5l-2.9-2.9c-0.5-0.5-0.5-1.4,0-1.9l0,0c0.5-0.5,1.4-0.5,1.9,0l2.9,2.9
							c0.5,0.5,0.5,1.4,0,1.9v0C228,92,227.2,92,226.6,91.5z"/>
					</g>
				</g>
			</g>
			<path id="XMLID_957_" d="M265.5,110c0-11-8.9-19.9-19.9-19.9c-11,0-19.9,8.9-19.9,19.9c0,7.9,8.7,15.7,9.1,16
				c0.9,0.8,1.7,2.5,1.7,3.7v8.6c0,1.3,1.1,2.4,2.4,2.4h13.5c1.3,0,2.4-1.1,2.4-2.4v-8.6c0-1.2,0.8-2.9,1.7-3.7
				C256.8,125.6,265.5,117.9,265.5,110z M252.7,138.6h-14.1v-4.7h14.1V138.6z M244,131.8V115h3.3v16.8H244z M255.1,124.4
				c-1.3,1.2-2.4,3.4-2.4,5.2v2.2h-3.3V115h0.3c0.6,0,1-0.5,1-1c0-0.6-0.5-1-1-1h-8.1c-0.6,0-1,0.5-1,1c0,0.6,0.5,1,1,1h0.3v16.8
				h-3.3v-2.2c0-1.8-1-4.1-2.4-5.2c-0.3-0.3-8.4-7.6-8.4-14.5c0-9.8,8-17.8,17.8-17.8c9.8,0,17.8,8,17.8,17.8
				C263.5,117,255.2,124.4,255.1,124.4z"/>
		</g>
		<g id="XMLID_901_">
			<g id="XMLID_911_">
				<defs>
					<rect id="XMLID_912_" x="440.8" y="345.5" width="51.9" height="28.3"/>
				</defs>
				<clipPath id="XMLID_3_">
					<use xlink:href="#XMLID_912_"  overflow="visible"/>
				</clipPath>
				<g id="XMLID_913_" clip-path="url(#XMLID_3_)">
					<g id="XMLID_947_">
						<g id="XMLID_948_">
							
								<rect id="XMLID_955_" x="443.1" y="355.9" fill="#FFFFFF" stroke="#000000" stroke-width="1.4" stroke-linecap="round" stroke-linejoin="round" stroke-miterlimit="10" width="39" height="24.4"/>
							<circle id="XMLID_954_" fill="#7D9BCC" cx="449.7" cy="362.1" r="2.7"/>
							
								<line id="XMLID_953_" fill="none" stroke="#7D9BCC" stroke-width="1.2464" stroke-linecap="round" stroke-linejoin="round" stroke-miterlimit="10" x1="454.4" y1="360.5" x2="465.7" y2="360.5"/>
							
								<line id="XMLID_952_" fill="none" stroke="#7D9BCC" stroke-width="1.2464" stroke-linecap="round" stroke-linejoin="round" stroke-miterlimit="10" x1="454.4" y1="363.2" x2="458.7" y2="363.2"/>
							
								<line id="XMLID_951_" fill="none" stroke="#000000" stroke-width="1.2464" stroke-linecap="round" stroke-linejoin="round" stroke-miterlimit="10" x1="448.2" y1="369.4" x2="465.6" y2="369.4"/>
							
								<line id="XMLID_950_" fill="none" stroke="#000000" stroke-width="1.2464" stroke-linecap="round" stroke-linejoin="round" stroke-miterlimit="10" x1="448.2" y1="371.9" x2="465.6" y2="371.9"/>
							
								<line id="XMLID_949_" fill="none" stroke="#000000" stroke-width="1.2464" stroke-linecap="round" stroke-linejoin="round" stroke-miterlimit="10" x1="448.2" y1="374.4" x2="465.6" y2="374.4"/>
						</g>
					</g>
					<g id="XMLID_914_">
						<g id="XMLID_915_">
							
								<rect id="XMLID_946_" x="449.1" y="352.9" fill="#FFFFFF" stroke="#000000" stroke-width="1.4" stroke-linecap="round" stroke-linejoin="round" stroke-miterlimit="10" width="39" height="24.4"/>
							<circle id="XMLID_921_" fill="#7D9BCC" cx="455.7" cy="359.1" r="2.7"/>
							
								<line id="XMLID_920_" fill="none" stroke="#7D9BCC" stroke-width="1.2464" stroke-linecap="round" stroke-linejoin="round" stroke-miterlimit="10" x1="460.4" y1="357.5" x2="471.7" y2="357.5"/>
							
								<line id="XMLID_919_" fill="none" stroke="#7D9BCC" stroke-width="1.2464" stroke-linecap="round" stroke-linejoin="round" stroke-miterlimit="10" x1="460.4" y1="360.2" x2="464.7" y2="360.2"/>
							
								<line id="XMLID_918_" fill="none" stroke="#000000" stroke-width="1.2464" stroke-linecap="round" stroke-linejoin="round" stroke-miterlimit="10" x1="454.2" y1="366.4" x2="471.6" y2="366.4"/>
							
								<line id="XMLID_917_" fill="none" stroke="#000000" stroke-width="1.2464" stroke-linecap="round" stroke-linejoin="round" stroke-miterlimit="10" x1="454.2" y1="368.9" x2="471.6" y2="368.9"/>
							
								<line id="XMLID_916_" fill="none" stroke="#000000" stroke-width="1.2464" stroke-linecap="round" stroke-linejoin="round" stroke-miterlimit="10" x1="454.2" y1="371.4" x2="471.6" y2="371.4"/>
						</g>
					</g>
				</g>
			</g>
			<g id="XMLID_902_">
				<g id="XMLID_903_">
					
						<rect id="XMLID_910_" x="455.1" y="349.9" fill="#FFFFFF" stroke="#000000" stroke-width="1.4" stroke-linecap="round" stroke-linejoin="round" stroke-miterlimit="10" width="39" height="24.4"/>
					<circle id="XMLID_909_" fill="#7D9BCC" cx="461.7" cy="356.1" r="2.7"/>
					
						<line id="XMLID_908_" fill="none" stroke="#7D9BCC" stroke-width="1.2464" stroke-linecap="round" stroke-linejoin="round" stroke-miterlimit="10" x1="466.4" y1="354.5" x2="477.7" y2="354.5"/>
					
						<line id="XMLID_907_" fill="none" stroke="#7D9BCC" stroke-width="1.2464" stroke-linecap="round" stroke-linejoin="round" stroke-miterlimit="10" x1="466.4" y1="357.2" x2="470.7" y2="357.2"/>
					
						<line id="XMLID_906_" fill="none" stroke="#000000" stroke-width="1.2464" stroke-linecap="round" stroke-linejoin="round" stroke-miterlimit="10" x1="460.2" y1="363.4" x2="477.6" y2="363.4"/>
					
						<line id="XMLID_905_" fill="none" stroke="#000000" stroke-width="1.2464" stroke-linecap="round" stroke-linejoin="round" stroke-miterlimit="10" x1="460.2" y1="365.9" x2="477.6" y2="365.9"/>
					
						<line id="XMLID_904_" fill="none" stroke="#000000" stroke-width="1.2464" stroke-linecap="round" stroke-linejoin="round" stroke-miterlimit="10" x1="460.2" y1="368.4" x2="477.6" y2="368.4"/>
				</g>
			</g>
		</g>
		<g id="XMLID_899_">
			<path id="XMLID_900_" d="M597.4,375.3H9.7c-0.6,0-1.2-0.5-1.2-1.2l0,0c0-0.6,0.5-1.2,1.2-1.2h587.7c0.6,0,1.2,0.5,1.2,1.2l0,0
				C598.6,374.8,598,375.3,597.4,375.3z"/>
		</g>
		<g id="XMLID_887_">
			<g id="XMLID_888_">
				<path id="XMLID_898_" fill="#B3B3B3" stroke="#000000" stroke-width="2.4" d="M232.1,372.6c0,4.3-3.5,7.7-7.7,7.7h-91.4
					c-4.3,0-7.7-3.5-7.7-7.7v-48.6c0-4.3,3.5-7.7,7.7-7.7h91.4c4.3,0,7.7,3.5,7.7,7.7V372.6z"/>
				<rect id="XMLID_896_" x="125.2" y="330" fill="#D1D3D4" stroke="#000000" stroke-width="2.4" width="106.9" height="36.1"/>
				<g id="XMLID_893_">
					<path id="XMLID_894_" fill="#FFFFFF" stroke="#000000" stroke-width="3" d="M168.4,327.1c-11.3,0-20.5,9.2-20.5,20.5
						c0,11.3,9.2,20.5,20.5,20.5c11.3,0,20.5-9.2,20.5-20.5C188.9,336.3,179.7,327.1,168.4,327.1z"/>
				</g>
				<circle id="XMLID_892_" fill="#54DFFF" stroke="#000000" stroke-width="2.4" cx="168.4" cy="347.6" r="23.9"/>
				<path id="XMLID_891_" fill="#54DFFF" stroke="#000000" stroke-width="2.4" d="M218.7,316.2h-39.2v-8.2c0-4.3,3.5-7.7,7.7-7.7
					H211c4.3,0,7.7,3.5,7.7,7.7V316.2z"/>
				<circle id="XMLID_890_" fill="#FFFFFF" cx="160" cy="338.5" r="4.8"/>
				<path id="XMLID_889_" fill="#54DFFF" stroke="#000000" stroke-width="2.4" d="M160.3,316.1h-23.7v-3.4c0-2.1,1.7-3.9,3.9-3.9
					h15.9c2.1,0,3.9,1.7,3.9,3.9V316.1z"/>
			</g>
		</g>
		<g id="XMLID_848_">
			<g id="XMLID_881_">
				<g id="XMLID_882_">
					<g id="XMLID_883_">
						<path id="XMLID_884_" d="M374.4,381h-10c-0.6,0-1-0.4-1-1v-66c0-0.6,0.4-1,1-1h10c0.6,0,1,0.4,1,1v66
							C375.4,380.5,375,381,374.4,381z M365.4,379h8v-64h-8V379z"/>
					</g>
				</g>
			</g>
			<g id="XMLID_873_">
				<g id="XMLID_932_">
					<g id="XMLID_933_">
						<g id="XMLID_934_">
							<rect id="XMLID_935_" x="365.4" y="315" fill="#F7941E" width="8" height="64"/>
						</g>
					</g>
				</g>
			</g>
			<g id="XMLID_867_">
				<g id="XMLID_868_">
					<g id="XMLID_869_">
						<path id="XMLID_870_" d="M374.4,315C374.4,315,374.4,315,374.4,315h-10c-0.3,0-0.6-0.2-0.8-0.4c-0.2-0.3-0.2-0.6-0.1-0.9l5-13
							c0.1-0.4,0.5-0.6,0.9-0.6s0.8,0.3,0.9,0.6l4.9,12.8c0.1,0.2,0.2,0.3,0.2,0.5C375.4,314.5,375,315,374.4,315z M365.9,313h7.1
							l-3.5-9.2L365.9,313z"/>
					</g>
				</g>
			</g>
			<g id="XMLID_863_">
				<g id="XMLID_864_">
					<g id="XMLID_865_">
						<polygon id="XMLID_866_" fill="#FFFFFF" points="365.9,313 369.4,303.8 373,313 						"/>
					</g>
				</g>
			</g>
			<g id="XMLID_859_">
				<g id="XMLID_860_">
					<g id="XMLID_861_">
						<polygon id="XMLID_862_" fill="#ED1C24" points="369.4,303.8 367.8,308 371,308 						"/>
					</g>
				</g>
			</g>
			<g id="XMLID_853_">
				<g id="XMLID_854_">
					<g id="XMLID_855_">
						<path id="XMLID_856_" d="M374.4,375h-10c-0.6,0-1-0.4-1-1v-5c0-0.6,0.4-1,1-1h10c0.6,0,1,0.4,1,1v5
							C375.4,374.5,375,375,374.4,375z M365.4,373h8v-3h-8V373z"/>
					</g>
				</g>
			</g>
			<g id="XMLID_849_">
				<g id="XMLID_850_">
					<g id="XMLID_851_">
						<rect id="XMLID_852_" x="365.4" y="370" fill="#FFFFFF" width="8" height="3"/>
					</g>
				</g>
			</g>
		</g>
		<g id="XMLID_788_">
			<g id="XMLID_799_">
				<g id="XMLID_1295_">
					<g id="XMLID_1303_">
						<path id="XMLID_1304_" d="M296.2,382.2l-1.5-0.2c0.3-1.6,0.6-3.2,1-4.8l1.4,0.4C296.7,379.1,296.4,380.6,296.2,382.2z
							 M386.5,382.1c-0.3-1.6-0.6-3.1-1-4.7l1.4-0.4c0.4,1.6,0.8,3.2,1,4.8L386.5,382.1z M298.6,373l-1.4-0.5c0.6-1.5,1.3-3.1,2-4.5
							l1.3,0.7C299.9,370,299.2,371.5,298.6,373z M384,372.9c-0.6-1.5-1.2-2.9-2-4.4l1.3-0.7c0.8,1.5,1.4,3,2,4.5L384,372.9z
							 M303,364.5l-1.3-0.8c0.9-1.4,1.9-2.7,2.9-4l1.2,0.9C304.8,361.8,303.9,363.1,303,364.5z M379.7,364.4
							c-0.9-1.3-1.8-2.6-2.8-3.9l1.2-0.9c1,1.3,2,2.6,2.9,4L379.7,364.4z M309,357.1l-1.1-1.1c1.2-1.2,2.4-2.3,3.7-3.3l0.9,1.2
							C311.3,354.8,310.1,355.9,309,357.1z M373.6,357c-1.1-1.1-2.3-2.2-3.6-3.2l0.9-1.2c1.3,1,2.5,2.1,3.7,3.3L373.6,357z
							 M316.4,351l-0.8-1.3c1.4-0.9,2.8-1.7,4.3-2.5l0.7,1.3C319.2,349.4,317.8,350.2,316.4,351z M366.2,351
							c-1.3-0.9-2.7-1.7-4.1-2.4l0.7-1.3c1.5,0.7,2.9,1.6,4.3,2.5L366.2,351z M324.9,346.7l-0.5-1.4c1.5-0.6,3.1-1.1,4.7-1.5
							l0.4,1.4C328,345.6,326.4,346.1,324.9,346.7z M357.7,346.7c-1.5-0.6-3-1.1-4.6-1.5l0.4-1.4c1.6,0.4,3.2,0.9,4.7,1.5
							L357.7,346.7z M334.2,344.2l-0.2-1.5c1.6-0.3,3.3-0.4,4.9-0.5l0.1,1.5C337.3,343.8,335.7,344,334.2,344.2z M348.5,344.2
							c-1.6-0.2-3.2-0.4-4.8-0.5l0.1-1.5c1.6,0.1,3.3,0.3,4.9,0.5L348.5,344.2z"/>
					</g>
					<g id="XMLID_1296_">
						<path id="XMLID_1300_" d="M291.5,392.8v-6.7h6.7v6.7H291.5z M293,391.3h3.7v-3.7H293V391.3z"/>
						<path id="XMLID_1297_" d="M384.5,392.8v-6.7h6.7v6.7H384.5z M386,391.3h3.7v-3.7H386V391.3z"/>
					</g>
				</g>
			</g>
			<g id="XMLID_789_">
				<g id="XMLID_945_">
					<rect id="XMLID_1118_" x="337.9" y="339.4" width="7" height="7"/>
					<rect id="XMLID_1072_" x="294.8" y="342.4" width="93" height="1"/>
					<circle id="XMLID_1056_" cx="294.8" cy="342.9" r="2.9"/>
					<circle id="XMLID_1014_" cx="387.9" cy="342.9" r="2.9"/>
				</g>
			</g>
		</g>
		<g id="XMLID_734_">
			<g id="XMLID_761_">
				<g id="XMLID_775_">
					<g id="XMLID_777_">
						<circle id="XMLID_787_" fill="#FFFFFF" cx="147.2" cy="127.1" r="32.5"/>
						
							<path id="XMLID_778_" fill="#8DC63F" stroke="#000000" stroke-width="1.7551" stroke-linecap="round" stroke-linejoin="round" d="
							M181.8,134l12.6-6.9l-12.6-6.9l9-11.2l-14.2-1.5l4-13.7l-13.7,4l-1.5-14.2l-11.2,9l-6.9-12.6l-6.9,12.6l-11.2-9l-1.5,14.2
							l-13.7-4l4,13.7l-14.3,1.5l9,11.2l-12.6,6.9l12.6,6.9l-9,11.2l14.2,1.5l-4,13.7l13.7-4l1.5,14.2l11.2-9l6.9,12.6l6.9-12.6
							l11.2,9l1.5-14.3l13.7,4l-4-13.7l14.2-1.5L181.8,134z M147.3,159c-17.6,0-31.9-14.3-31.9-31.9c0-17.6,14.3-31.9,31.9-31.9
							s31.9,14.3,31.9,31.9C179.1,144.7,164.9,159,147.3,159z"/>
					</g>
				</g>
				<g id="XMLID_766_">
					<g id="XMLID_767_">
						<g id="XMLID_816_">
							<polygon id="XMLID_817_" fill="#F7941E" points="147.5,108.4 152.2,122.8 167.4,122.8 155.1,131.7 159.8,146.1 147.5,137.2 
								135.3,146.1 140,131.7 127.7,122.8 142.9,122.8 							"/>
						</g>
					</g>
				</g>
				
					<polygon id="XMLID_762_" fill="none" stroke="#000000" stroke-width="2.2155" stroke-linecap="round" stroke-linejoin="round" stroke-miterlimit="10" points="
					147.5,108.4 152.2,122.8 167.4,122.8 155.1,131.7 159.8,146.1 147.5,137.2 135.3,146.1 140,131.7 127.7,122.8 142.9,122.8 				
					"/>
			</g>
			
				<path id="XMLID_757_" fill="#8DC63F" stroke="#000000" stroke-width="1.7551" stroke-linecap="round" stroke-linejoin="round" d="
				M181.8,134l12.6-6.9l-12.6-6.9l9-11.2l-14.2-1.5l4-13.7l-13.7,4l-1.5-14.2l-11.2,9l-6.9-12.6l-6.9,12.6l-11.2-9l-1.5,14.2
				l-13.7-4l4,13.7l-14.3,1.5l9,11.2l-12.6,6.9l12.6,6.9l-9,11.2l14.2,1.5l-4,13.7l13.7-4l1.5,14.2l11.2-9l6.9,12.6l6.9-12.6l11.2,9
				l1.5-14.3l13.7,4l-4-13.7l14.2-1.5L181.8,134z M147.3,159c-17.6,0-31.9-14.3-31.9-31.9c0-17.6,14.3-31.9,31.9-31.9
				s31.9,14.3,31.9,31.9C179.1,144.7,164.9,159,147.3,159z"/>
			<g id="XMLID_735_">
				<defs>
					<path id="XMLID_754_" d="M181.8,134l12.6-6.9l-12.6-6.9l9-11.2l-14.2-1.5l4-13.7l-13.7,4l-1.5-14.2l-11.2,9l-6.9-12.6
						l-6.9,12.6l-11.2-9l-1.5,14.2l-13.7-4l4,13.7l-14.3,1.5l9,11.2l-12.6,6.9l12.6,6.9l-9,11.2l14.2,1.5l-4,13.7l13.7-4l1.5,14.2
						l11.2-9l6.9,12.6l6.9-12.6l11.2,9l1.5-14.3l13.7,4l-4-13.7l14.2-1.5L181.8,134z"/>
				</defs>
				<clipPath id="XMLID_4_">
					<use xlink:href="#XMLID_754_"  overflow="visible"/>
				</clipPath>
			</g>
		</g>
	</g>
</g>
<g id="Guides">
</g>
</svg>
